<?xml version="1.0" encoding="UTF-8" standalone="no"?>
<!-- Created with Inkscape (http://www.inkscape.org/) -->

<svg
   xmlns:dc="http://purl.org/dc/elements/1.1/"
   xmlns:cc="http://creativecommons.org/ns#"
   xmlns:rdf="http://www.w3.org/1999/02/22-rdf-syntax-ns#"
   xmlns:svg="http://www.w3.org/2000/svg"
   xmlns="http://www.w3.org/2000/svg"
   xmlns:sodipodi="http://sodipodi.sourceforge.net/DTD/sodipodi-0.dtd"
   xmlns:inkscape="http://www.inkscape.org/namespaces/inkscape"
   width="101.01296mm"
   height="23.700123mm"
   viewBox="0 0 357.91994 83.976811"
   id="svg2"
   version="1.1"
   inkscape:version="0.91 r13725"
   sodipodi:docname="logo.svg"
   inkscape:export-filename="/Users/tass/Projects/trout-bout/logo.png"
   inkscape:export-xdpi="81.550003"
   inkscape:export-ydpi="81.550003">
  <defs
     id="defs4" />
  <sodipodi:namedview
     id="base"
     pagecolor="#ffffff"
     bordercolor="#666666"
     borderopacity="1.0"
     inkscape:pageopacity="0.0"
     inkscape:pageshadow="2"
     inkscape:zoom="2.9690691"
     inkscape:cx="177.31977"
     inkscape:cy="26.466589"
     inkscape:document-units="px"
     inkscape:current-layer="svg2"
     showgrid="false"
     fit-margin-top="5"
     fit-margin-left="5"
     fit-margin-right="5"
     fit-margin-bottom="5"
     inkscape:window-width="1440"
     inkscape:window-height="800"
     inkscape:window-x="0"
     inkscape:window-y="0"
     inkscape:window-maximized="1" />
  <metadata
     id="metadata7">
    <rdf:RDF>
      <cc:Work
         rdf:about="">
        <dc:format>image/svg+xml</dc:format>
        <dc:type
           rdf:resource="http://purl.org/dc/dcmitype/StillImage" />
        <dc:title></dc:title>
      </cc:Work>
    </rdf:RDF>
  </metadata>
  <g
     transform="translate(-65.200604,-34.673357)"
     id="g4154"
     inkscape:groupmode="layer"
     inkscape:label="Layer 1 copy"
     style="display:inline">
    <flowRoot
       style="font-style:normal;font-variant:normal;font-weight:normal;font-stretch:normal;font-size:60px;line-height:125%;font-family:'Snowtop Caps';-inkscape-font-specification:'Snowtop Caps';letter-spacing:0px;word-spacing:0px;fill:#000000;fill-opacity:1;stroke:none;stroke-width:1px;stroke-linecap:butt;stroke-linejoin:miter;stroke-opacity:1"
       id="flowRoot4156"
       xml:space="preserve"><flowRegion
         id="flowRegion4158"><rect
           style="font-style:normal;font-variant:normal;font-weight:normal;font-stretch:normal;font-size:60px;font-family:'Snowtop Caps';-inkscape-font-specification:'Snowtop Caps'"
           y="55.219349"
           x="42.857143"
           height="180"
           width="617.14288"
           id="rect4160" /></flowRegion><flowPara
         id="flowPara4162"></flowPara></flowRoot>    <path
       style="font-style:normal;font-weight:normal;font-size:40px;line-height:125%;font-family:sans-serif;letter-spacing:0px;word-spacing:0px;fill:#67a2e8;fill-opacity:1;stroke:none;stroke-width:1px;stroke-linecap:butt;stroke-linejoin:miter;stroke-opacity:1"
       d="m 141.83984,48.294922 c -7.8549,5.096268 -17.54848,-3.898423 -23.77539,4.666016 -10.4859,-5.831745 -21.446807,-2.784636 -32.53196,-3.60453 -12.867258,4.628843 -5.996774,25.423237 6.13797,22.899952 0.02583,9.871051 -2.053947,28.46798 1.075604,31.57839 3.461135,3.43997 17.389546,-1.80704 22.140166,-1.14408 4.75062,0.66296 31.61287,1.74449 38.55479,-0.31011 2.26611,-0.6707 8.76096,2.43348 17.86657,2.58457 9.10561,0.15109 8.37622,-3.18654 18.13497,-2.73781 9.75875,0.44873 34.09723,-1.27911 46.27358,2.36645 12.17635,3.64556 10.07536,-12.151259 9.67445,-21.0941 1.23254,-5.554061 1.38819,-10.272195 5.10296,-9.262004 8.88673,2.416647 9.75077,-24.845158 -3.7371,-24.735596 -13.48788,0.109563 -25.98863,2.911005 -37.38746,0.212929 -5.28591,0.493646 -7.21263,7.306424 -11.59478,0.374241 -5.85467,-3.353638 -14.4447,-1.660417 -14.00468,6.436154 -4.3391,-13.435657 -22.59884,-5.986176 -31.42715,-1.43207 -1.55597,2.4258 -6.34072,-7.744282 -10.50254,-6.798402 z m 138.13282,0.115234 c -12.83453,2.116493 -11.9364,15.003336 -10.34685,25.378107 3.07663,9.915114 -6.94855,30.415647 7.45268,31.034667 10.45646,1.90041 25.67627,-3.15692 31.11805,-1.47448 11.59342,3.58435 24.09306,-2.18089 30.41857,-0.67925 12.56048,2.98179 23.83631,0.0367 31.99669,-0.0557 l 9.67859,0.81686 c 5.3456,1.94932 18.23836,3.17676 17.58144,-4.707896 -0.65693,-7.884658 -0.98816,-20.726137 0.6867,-26.28254 9.76314,9.195323 17.26074,-19.928157 4.08753,-21.122015 -11.25282,-2.471487 -23.19809,-3.91849 -34.04059,0.479009 -8.51352,-6.728931 -13.53459,6.931553 -20.53106,-2.410345 -5.54448,-3.035143 -12.18176,0.690128 -11.67207,7.142767 -4.46466,-13.645549 -23.26512,-5.74846 -31.83585,-0.989374 -2.29834,7.069491 -8.7613,-7.135223 -15.68587,-4.444971 -3.33252,0.450235 -5.85517,-1.997646 -8.90796,-2.684799 z"
       id="text4164"
       inkscape:connector-curvature="0"
       sodipodi:nodetypes="ccccszszzzcszccccccccsscczcccccccc"
       inkscape:export-xdpi="108.73"
       inkscape:export-ydpi="108.73" />
  </g>
  <g
     style="display:inline"
     transform="translate(-65.200604,-34.673357)"
     id="g4178"
     inkscape:groupmode="layer"
     inkscape:label="Layer 1 copy 1">
    <flowRoot
       style="font-style:normal;font-variant:normal;font-weight:normal;font-stretch:normal;font-size:60px;line-height:125%;font-family:'Snowtop Caps';-inkscape-font-specification:'Snowtop Caps';letter-spacing:0px;word-spacing:0px;fill:#000000;fill-opacity:1;stroke:none;stroke-width:1px;stroke-linecap:butt;stroke-linejoin:miter;stroke-opacity:1"
       id="flowRoot4180"
       xml:space="preserve"><flowRegion
         id="flowRegion4182"><rect
           style="font-style:normal;font-variant:normal;font-weight:normal;font-stretch:normal;font-size:60px;font-family:'Snowtop Caps';-inkscape-font-specification:'Snowtop Caps'"
           y="55.219349"
           x="42.857143"
           height="180"
           width="617.14288"
           id="rect4184" /></flowRegion><flowPara
         id="flowPara4186"></flowPara></flowRoot>    <text
       sodipodi:linespacing="125%"
       id="text4188"
       y="100.93363"
       x="82.85714"
       style="font-style:normal;font-weight:normal;font-size:40px;line-height:125%;font-family:sans-serif;letter-spacing:0px;word-spacing:0px;fill:#100e4b;fill-opacity:1;stroke:none;stroke-width:1px;stroke-linecap:butt;stroke-linejoin:miter;stroke-opacity:1"
       xml:space="preserve"><tspan
         style="font-style:normal;font-variant:normal;font-weight:normal;font-stretch:normal;font-size:60px;font-family:'Snowtop Caps';-inkscape-font-specification:'Snowtop Caps';fill:#100e4b;fill-opacity:1"
         y="100.93363"
         x="82.85714"
         id="tspan4190"
         sodipodi:role="line">Trout Bout</tspan></text>
  </g>
  <g
     inkscape:label="Layer 1"
     inkscape:groupmode="layer"
     id="layer1"
     transform="translate(-65.200604,-34.673357)"
     style="display:inline">
    <flowRoot
       xml:space="preserve"
       id="flowRoot4136"
       style="font-style:normal;font-variant:normal;font-weight:normal;font-stretch:normal;font-size:60px;line-height:125%;font-family:'Snowtop Caps';-inkscape-font-specification:'Snowtop Caps';letter-spacing:0px;word-spacing:0px;fill:#000000;fill-opacity:1;stroke:none;stroke-width:1px;stroke-linecap:butt;stroke-linejoin:miter;stroke-opacity:1"><flowRegion
         id="flowRegion4138"><rect
           id="rect4140"
           width="617.14288"
           height="180"
           x="42.857143"
           y="55.219349"
           style="font-style:normal;font-variant:normal;font-weight:normal;font-stretch:normal;font-size:60px;font-family:'Snowtop Caps';-inkscape-font-specification:'Snowtop Caps'" /></flowRegion><flowPara
         id="flowPara4142"></flowPara></flowRoot>    <g
       style="font-style:normal;font-weight:normal;font-size:40px;line-height:125%;font-family:sans-serif;letter-spacing:0px;word-spacing:0px;fill:#100e4b;fill-opacity:1;stroke:none;stroke-width:1px;stroke-linecap:butt;stroke-linejoin:miter;stroke-opacity:1"
       id="text4144">
      <path
         d="m 102.89714,58.993632 0,-0.36 c -0.18,-0.3 -0.42,-0.3 -0.6,0 -0.06,0.12 0,0.24 0.24,0.36 0.06,0.06 0.12,0.06 0.18,0.06 0.06,0 0.12,0 0.18,-0.06 z m 13.02,0.36 -0.78,3 c -0.24,0.96 -0.36,1.62 -0.36,2.04 0.12,0.66 0.36,1.32 0.78,2.04 l -0.54,1.32 c -0.54,-0.9 -1.08,-1.92 -1.56,-3.06 -0.12,-0.3 -0.54,-1.38 -1.2,-3.24 -0.36,-0.96 -1.08,-1.44 -2.1,-1.44 -1.38,0.18 -2.34,1.68 -3,4.5 -0.54,0 -1.2,-1.26 -1.68,-1.26 -1.5,0 -2.52,1.32 -2.94,3.9 l -0.72,4.74 c -0.78,-2.34 -1.38,-4.08 -1.8,-5.22 -1.2,-3.42 -2.82,-5.1 -4.8,-5.1 -0.78,0.06 -1.92,1.08 -2.16,1.08 -2.1,-2.22 -3.54,-3.3 -4.32,-3.3 -0.18,0 -0.42,0.12 -0.72,0.3 -0.54,0.42 -0.96,0.6 -1.2,0.6 -0.3,0 -0.84,-0.48 -1.62,-1.5 -0.72,-1.02 -1.08,-1.74 -1.08,-2.1 0,-1.26 0.48,-1.92 1.5,-1.92 0.48,0 1.14,0.24 1.98,0.66 0.84,0.42 1.5,0.66 1.98,0.66 0.18,0 0.66,-0.3 1.08,-0.24 0.72,0 1.5,-0.36 2.28,-1.02 0.78,-0.66 1.5,-1.02 2.04,-1.02 0.3,0 0.84,0.42 1.68,1.26 1.62,1.62 2.46,2.46 2.58,2.46 0.42,0 1.26,-0.54 2.52,-1.68 1.26,-1.14 2.28,-1.74 3.18,-1.68 0.66,0.06 1.56,0.78 2.64,2.22 0.42,0.6 0.96,0.84 1.5,0.78 0.18,0 0.96,-0.18 2.22,-0.6 0.54,-0.18 1.02,-0.24 1.44,-0.24 2.1,0 3.18,1.02 3.18,3.06 z m -9.48,-1.5 c 0.06,-0.54 -1.08,-1.56 -1.74,-1.56 l -0.24,0.24 c -0.18,0.24 0.36,0.48 0.66,0.72 0.54,0.66 0.9,0.96 1.08,0.84 z m -4.5,1.74 -0.72,0.12 c -0.3,0.18 -0.6,0.24 -0.84,0.24 -0.12,0 -0.24,-0.06 -0.3,-0.12 -0.54,-0.66 -0.9,-0.96 -1.08,-0.96 l -0.36,0.12 c 0.24,1.26 0.72,1.86 1.44,1.86 0.66,0 1.8,-0.72 1.86,-1.26 z"
         style="font-style:normal;font-variant:normal;font-weight:normal;font-stretch:normal;font-size:60px;font-family:'Snowtop Caps';-inkscape-font-specification:'Snowtop Caps';fill:#ffffff;fill-opacity:1"
         id="path4193"
         inkscape:connector-curvature="0"
         sodipodi:nodetypes="ccccsccccccccccscccccscscsssscssssscccsscccccccccscccsc" />
      <path
         d="m 148.60214,64.033632 c -0.18,1.2 -0.24,2.04 -0.3,2.52 -0.18,1.38 -0.3,2.22 -0.36,2.58 l -1.8,-5.4 c -0.66,-1.38 -1.38,-2.04 -2.22,-1.92 -0.42,0.06 -0.84,0.48 -1.26,1.26 -0.42,0.78 -0.66,1.14 -0.84,1.2 -0.78,-1.62 -1.26,-2.52 -1.38,-2.7 -0.54,-0.84 -1.02,-1.32 -1.5,-1.44 -0.54,-0.12 -1.26,0.96 -2.04,3.24 -0.3,0.84 -0.6,1.86 -0.9,3.06 -1.62,-2.22 -2.58,-3.6 -3,-4.14 -1.08,-1.44 -1.92,-2.16 -2.58,-2.16 -0.72,0 -2.52,1.98 -5.4,5.94 l -0.36,0 c 0.18,-0.24 0.18,-0.42 0.18,-1.2 0,-2.22 -1.14,-4.44 -3.36,-6.66 0.78,-2.04 1.14,-3.06 1.2,-3.12 0.42,-0.72 1.08,-1.08 1.98,-1.08 0.54,0 1.32,0.48 2.4,1.5 1.08,1.02 1.68,1.5 1.8,1.5 0.36,0 1.2,-0.48 2.46,-1.38 1.32,-0.96 2.34,-1.38 3.12,-1.26 0.36,0.06 0.9,0.72 1.56,1.98 0.72,1.26 1.26,1.86 1.56,1.86 0.6,0 1.32,-0.72 2.16,-2.22 0.84,-1.5 1.62,-2.22 2.34,-2.22 0.6,0 1.32,0.72 2.22,2.16 0.9,1.44 1.68,2.1 2.4,1.92 0.42,0.42 0.78,1.5 1.08,3.24 0.3,1.68 0.6,2.64 0.84,2.94 z m -11.76,9.96 c -0.36,1.02 -0.54,1.92 -0.6,2.64 -0.12,-0.3 -0.24,-0.48 -0.3,-0.54 -0.24,-0.3 -0.48,-0.48 -0.72,-0.54 -0.36,-0.06 -0.72,0.12 -1.14,0.6 -0.36,0.48 -0.54,0.72 -0.6,0.72 l 0,-0.6 c 0,-2.22 0.36,-3.3 1.08,-3.3 0.18,0 0.66,0.24 1.56,0.72 0.36,0.18 0.6,0.3 0.72,0.3 z m -9.3,-15.3 c 0.06,-0.12 -0.06,-0.24 -0.42,-0.42 -0.12,-0.06 -0.3,-0.12 -0.54,-0.18 l 0,1.02 c 0.42,-0.18 0.72,-0.3 0.96,-0.42 z"
         style="font-style:normal;font-variant:normal;font-weight:normal;font-stretch:normal;font-size:60px;font-family:'Snowtop Caps';-inkscape-font-specification:'Snowtop Caps';fill:#ffffff;fill-opacity:1"
         id="path4195"
         inkscape:connector-curvature="0"
         sodipodi:nodetypes="ccccssccccccsccsccssscccsssscccccccccsscccsccc" />
      <path
         d="m 181.22901,65.713632 c 0,0.54 -0.18,1.02 -0.54,1.32 l 0.24,6.96 c -1.74,-7.62 -2.82,-11.46 -3.36,-11.46 -0.66,0 -1.2,0.9 -1.62,2.7 -0.78,-1.38 -1.38,-2.46 -1.8,-3.12 -1.02,-1.74 -2.16,-2.64 -3.3,-2.64 -0.42,0 -0.78,0.54 -0.96,1.56 -0.18,1.02 -0.54,1.5 -0.96,1.5 -0.36,0 -1.02,-0.36 -1.98,-1.08 -0.96,-0.72 -1.68,-1.08 -2.16,-1.08 -0.42,0 -1.02,0.54 -1.8,1.56 -0.72,1.02 -1.32,1.62 -1.74,1.74 -0.3,-0.42 -0.72,-0.66 -1.26,-0.66 -0.24,0.06 -0.72,0.36 -1.5,0.9 -0.78,0.54 -1.2,0.78 -1.38,0.72 -0.54,-0.12 -1.08,-0.78 -1.56,-1.92 -0.48,-1.14 -0.66,-2.04 -0.54,-2.58 0,-0.36 0.36,-0.9 1.08,-1.68 0.78,-0.78 1.32,-1.2 1.74,-1.32 l 0.72,0.24 c 0.42,0 1.08,-0.18 2.04,-0.54 1.02,-0.36 1.62,-0.54 1.92,-0.54 0.84,0 1.5,0.48 2.04,1.44 0.36,-0.06 1.02,-0.48 1.98,-1.38 1.02,-0.9 1.62,-1.38 1.92,-1.38 1.02,0 1.86,1.44 1.92,1.44 0.3,0 0.84,-0.48 1.62,-1.38 0.54,-0.6 1.02,-1.2 1.56,-1.8 0.54,0 1.38,0.3 2.64,0.9 1.26,0.54 1.98,1.08 2.16,1.5 0.06,0.12 0.24,1.14 0.54,3.12 0.3,1.56 0.72,2.52 1.32,2.82 -0.06,0.24 0,0.72 0.24,1.5 0.42,1.38 0.72,2.28 0.78,2.64 z m -10.62,28.8 c -0.3,1.74 -0.54,3.06 -0.72,3.96 -0.36,-0.78 -0.66,-1.38 -0.9,-1.74 -0.6,-0.9 -1.2,-1.32 -1.8,-1.32 -0.18,0 -0.3,0 -0.42,0.06 -0.18,-0.36 -0.24,-0.84 -0.24,-1.38 0,-0.48 0.12,-1.14 0.3,-2.04 0.24,-1.08 0.48,-1.68 0.78,-1.74 2.1,1.14 3.06,2.58 3,4.2 z m 4.38,-37.02 -1.32,0.6 c -0.54,-0.36 -0.9,-0.66 -1.08,-0.96 l -0.24,0 0.54,1.32 c 0.24,0.24 0.48,0.36 0.66,0.42 l 0.24,0.12 c 0.42,0 0.78,-0.24 1.02,-0.72 z m -14.64,3.12 c 0,-0.48 -1.02,-1.14 -1.56,-1.14 l -0.12,0.42 0.66,0.54 c 0.18,0.18 0.42,0.3 0.6,0.3 0.18,0 0.3,-0.06 0.42,-0.12 z"
         style="font-style:normal;font-variant:normal;font-weight:normal;font-stretch:normal;font-size:60px;font-family:'Snowtop Caps';-inkscape-font-specification:'Snowtop Caps';fill:#ffffff;fill-opacity:1"
         id="path4197"
         inkscape:connector-curvature="0"
         sodipodi:nodetypes="cccsccssssscccscscccccsccssccccccccccsscsccccccccccccccccsc" />
      <path
         d="m 214.31339,59.833632 -0.54,1.26 c -0.36,0.84 -0.54,1.56 -0.54,2.16 0,3.06 -0.24,4.62 -0.72,4.62 -0.48,0 -0.96,-1.5 -1.5,-4.44 -0.18,-0.42 -0.72,-1.2 -1.62,-2.22 -1.56,-1.8 -2.34,-3.12 -2.34,-3.96 0,-1.44 0.66,-2.28 1.92,-2.52 0.78,-0.06 1.14,0.12 1.14,0.6 -0.3,1.2 0.9,2.52 2.16,2.52 0.48,0 1.14,-1.2 1.32,-1.2 0.24,-0.06 0.18,0.3 0.36,1.56 0.3,0.96 0.42,1.5 0.36,1.62 z m -16.5,-2.82 -0.24,8.34 c -0.06,0.84 -0.3,1.2 -0.84,1.08 -0.06,-0.06 -0.12,-0.24 -0.3,-0.66 -0.06,-0.18 -0.24,-0.6 -0.66,-1.32 -0.3,-0.54 -0.48,-0.96 -0.48,-1.32 l 0.12,-0.6 c 0,-0.06 -0.18,-0.24 -0.48,-0.6 -0.66,-0.72 -1.32,-1.5 -1.92,-2.34 -0.42,-0.48 -0.9,-0.72 -1.44,-0.72 -0.84,0 -1.38,0.36 -1.56,1.14 -0.12,0.3 -0.18,1.02 -0.18,2.16 -0.06,0 -0.18,0 -0.24,-0.06 -0.18,-0.54 -0.36,-1.2 -0.48,-1.98 0,-0.48 0.06,-1.08 0.12,-1.8 0,-0.42 -0.24,-1.5 -0.24,-1.92 0.18,-2.16 0.66,-3.18 1.38,-3.06 0.78,0 1.26,0.42 1.44,1.26 0,0.18 -0.06,0.36 -0.12,0.6 0.18,0.66 0.66,0.96 1.32,0.96 0.48,0 0.84,-0.24 1.08,-0.78 0.24,-0.54 0.78,-0.78 1.56,-0.78 0.42,0 0.66,0.96 0.9,1.5 0.24,0.42 0.66,0.72 1.26,0.9 z m 6.66,35.16 c 0,0.6 -0.3,2.34 -0.96,5.22 -0.3,0 -0.72,-0.42 -1.14,-1.26 -0.42,-0.9 -0.72,-1.32 -0.9,-1.38 l -1.38,-3.06 c 0.06,-0.06 0.36,-0.72 0.78,-1.98 0.36,-1.08 0.72,-1.62 1.08,-1.62 l 0.72,0 c 0.48,0.9 0.78,1.44 0.9,1.74 0.6,1.26 0.9,2.04 0.9,2.34 z m -8.58,-33.54 c 0,-0.54 -0.42,-0.78 -1.2,-0.78 -0.3,0 -0.42,0.12 -0.48,0.36 -0.06,0.3 0.9,0.72 1.2,0.66 0.3,-0.06 0.48,-0.18 0.48,-0.24 z"
         style="font-style:normal;font-variant:normal;font-weight:normal;font-stretch:normal;font-size:60px;font-family:'Snowtop Caps';-inkscape-font-specification:'Snowtop Caps';fill:#ffffff;fill-opacity:1"
         id="path4199"
         inkscape:connector-curvature="0"
         sodipodi:nodetypes="csssccsccsccccccccccccscccccccccsssccsccccssccssscss" />
      <path
         d="m 238.36589,58.993632 0,-0.36 c -0.18,-0.3 -0.42,-0.3 -0.6,0 -0.06,0.12 0,0.24 0.24,0.36 0.06,0.06 0.12,0.06 0.18,0.06 0.06,0 0.12,0 0.18,-0.06 z m 13.02,0.36 -0.78,3 c -0.24,0.96 -0.36,1.62 -0.36,2.04 0.12,0.66 0.36,1.32 0.78,2.04 l -0.54,1.32 c -0.54,-0.9 -1.08,-1.92 -1.56,-3.06 -0.12,-0.3 -0.54,-1.38 -1.2,-3.24 -0.36,-0.96 -1.08,-1.44 -2.1,-1.44 -1.38,0.18 -2.34,1.68 -3,4.5 -0.54,0 -1.2,-1.26 -1.68,-1.26 -1.5,0 -2.52,1.32 -2.94,3.9 l -0.72,4.74 c -0.78,-2.34 -1.38,-4.08 -1.8,-5.22 -1.2,-3.42 -2.82,-5.1 -4.8,-5.1 -0.78,0.06 -1.92,1.08 -2.16,1.08 -2.1,-2.22 -3.54,-3.3 -4.32,-3.3 -0.18,0 -0.42,0.12 -0.72,0.3 -0.54,0.42 -0.96,0.6 -1.2,0.6 -0.3,0 -0.84,-0.48 -1.62,-1.5 -0.72,-1.02 -1.08,-1.74 -1.08,-2.1 0,-1.26 0.48,-1.92 1.5,-1.92 0.48,0 1.14,0.24 1.98,0.66 0.84,0.42 1.5,0.66 1.98,0.66 0.18,0 0.66,-0.3 1.08,-0.24 0.72,0 1.5,-0.36 2.28,-1.02 0.78,-0.66 1.5,-1.02 2.04,-1.02 0.3,0 0.84,0.42 1.68,1.26 1.62,1.62 2.46,2.46 2.58,2.46 0.42,0 1.26,-0.54 2.52,-1.68 1.26,-1.14 2.28,-1.74 3.18,-1.68 0.66,0.06 1.56,0.78 2.64,2.22 0.42,0.6 0.96,0.84 1.5,0.78 0.18,0 0.96,-0.18 2.22,-0.6 0.54,-0.18 1.02,-0.24 1.44,-0.24 2.1,0 3.18,1.02 3.18,3.06 z m -9.48,-1.5 c 0.06,-0.54 -1.08,-1.56 -1.74,-1.56 l -0.24,0.24 c -0.18,0.24 0.36,0.48 0.66,0.72 0.54,0.66 0.9,0.96 1.08,0.84 z m -4.5,1.74 -0.72,0.12 c -0.3,0.18 -0.6,0.24 -0.84,0.24 -0.12,0 -0.24,-0.06 -0.3,-0.12 -0.54,-0.66 -0.9,-0.96 -1.08,-0.96 l -0.36,0.12 c 0.24,1.26 0.72,1.86 1.44,1.86 0.66,0 1.8,-0.72 1.86,-1.26 z"
         style="font-style:normal;font-variant:normal;font-weight:normal;font-stretch:normal;font-size:60px;font-family:'Snowtop Caps';-inkscape-font-specification:'Snowtop Caps';fill:#ffffff;fill-opacity:1"
         id="path4201"
         inkscape:connector-curvature="0"
         sodipodi:nodetypes="ccccsccccccccccscccccscscsssscssssscccsscccccccccscccsc" />
      <path
         d="m 299.51151,63.673632 -0.06,1.02 -0.12,1.44 c -0.54,-1.26 -1.08,-2.58 -1.62,-3.9 -0.66,-1.08 -1.44,-1.62 -2.34,-1.62 -0.06,0.12 -0.06,0.24 -0.12,0.3 0.06,0.18 0.24,0.6 0.48,1.14 0,1.38 -0.6,2.1 -1.74,2.1 -0.6,0 -1.2,-0.54 -1.74,-1.68 -0.54,-1.14 -0.84,-1.68 -1.02,-1.74 l -0.6,0.24 c -0.54,0 -1.74,-0.84 -2.22,-0.84 -0.42,0 -0.96,0.24 -1.5,0.78 l -1.74,1.62 c -0.24,0 -0.6,-0.3 -1.14,-0.9 l -0.72,-0.9 c -1.38,2.34 -2.28,3.54 -2.76,3.54 -0.18,0 -0.48,-0.6 -0.9,-1.74 -0.42,-1.2 -0.78,-1.8 -1.02,-1.8 -0.66,0 -1.14,0.42 -1.32,1.2 -0.48,1.98 -1.44,4.26 -2.82,6.84 l -0.6,-1.26 c 0,-0.24 -0.18,-1.92 -0.6,-4.98 -0.18,-1.26 -0.24,-2.1 -0.24,-2.64 0,-0.48 0.06,-1.2 0.24,-2.22 0.18,-1.14 0.42,-1.74 0.6,-1.74 0.6,0 1.26,0.3 2.04,0.9 0.78,0.6 1.32,0.9 1.74,0.9 0.06,0 0.24,-0.72 0.66,-2.16 0.42,-1.44 1.08,-2.16 2.1,-2.22 0.3,0 0.78,0.42 1.44,1.32 0.42,0.6 0.9,1.2 1.32,1.86 0.3,0.06 0.54,-0.84 0.72,-0.84 0.96,0 2.46,0.12 4.44,0.36 2.28,0.3 3.66,0.6 4.08,0.9 1.38,0.96 2.82,1.92 4.2,2.88 1.98,1.56 2.94,2.82 2.88,3.84 z m -9.36,11.4 c -0.06,0.36 -0.06,0.66 -0.06,0.84 -0.12,1.2 -0.3,1.86 -0.6,1.92 -0.24,0.06 -0.48,-0.18 -0.78,-0.72 -0.3,-0.54 -0.54,-0.84 -0.78,-0.84 -0.48,0 -1.08,1.44 -1.56,1.44 -0.54,0 -0.78,-0.9 -0.78,-2.7 0,-0.3 0,-0.6 0.06,-0.9 l 0,-0.66 c 0.12,0 0.48,0.12 1.08,0.42 0.6,0.24 1.02,0.36 1.2,0.36 0.66,-0.18 1.08,-0.54 1.2,-1.14 0.66,0.66 1.02,1.32 1.02,1.98 z m 1.2,18.6 -0.12,1.08 c -0.48,-1.14 -0.84,-1.68 -1.08,-1.62 -0.3,0 -0.9,0.48 -1.74,1.44 -0.84,0.96 -1.44,1.38 -1.8,1.26 -0.3,-0.06 -0.6,-0.36 -0.96,-0.84 0,-0.54 0.12,-1.5 0.42,-2.76 0.3,-1.26 0.54,-2.1 0.78,-2.4 0.18,0.66 0.96,1.38 2.34,2.1 1.44,0.66 2.16,1.26 2.16,1.74 z"
         style="font-style:normal;font-variant:normal;font-weight:normal;font-stretch:normal;font-size:60px;font-family:'Snowtop Caps';-inkscape-font-specification:'Snowtop Caps';fill:#ffffff;fill-opacity:1"
         id="path4203"
         inkscape:connector-curvature="0"
         sodipodi:nodetypes="sccccccssccsccccscsccccscsssscccscccscccsssscccccccccsccsccc" />
      <path
         d="m 333.80714,65.713632 c 0,0.54 -0.18,1.02 -0.54,1.32 l 0.24,6.96 c -1.74,-7.62 -2.82,-11.46 -3.36,-11.46 -0.66,0 -1.2,0.9 -1.62,2.7 -0.78,-1.38 -1.38,-2.46 -1.8,-3.12 -1.02,-1.74 -2.16,-2.64 -3.3,-2.64 -0.42,0 -0.78,0.54 -0.96,1.56 -0.18,1.02 -0.54,1.5 -0.96,1.5 -0.36,0 -1.02,-0.36 -1.98,-1.08 -0.96,-0.72 -1.68,-1.08 -2.16,-1.08 -0.42,0 -1.02,0.54 -1.8,1.56 -0.72,1.02 -1.32,1.62 -1.74,1.74 -0.3,-0.42 -0.72,-0.66 -1.26,-0.66 -0.24,0.06 -0.72,0.36 -1.5,0.9 -0.78,0.54 -1.2,0.78 -1.38,0.72 -0.54,-0.12 -1.08,-0.78 -1.56,-1.92 -0.48,-1.14 -0.66,-2.04 -0.54,-2.58 0,-0.36 0.36,-0.9 1.08,-1.68 0.78,-0.78 1.32,-1.2 1.74,-1.32 l 0.72,0.24 c 0.42,0 1.08,-0.18 2.04,-0.54 1.02,-0.36 1.62,-0.54 1.92,-0.54 0.84,0 1.5,0.48 2.04,1.44 0.36,-0.06 1.02,-0.48 1.98,-1.38 1.02,-0.9 1.62,-1.38 1.92,-1.38 1.02,0 1.86,1.44 1.92,1.44 0.3,0 0.84,-0.48 1.62,-1.38 0.54,-0.6 1.02,-1.2 1.56,-1.8 0.54,0 1.38,0.3 2.64,0.9 1.26,0.54 1.98,1.08 2.16,1.5 0.06,0.12 0.24,1.14 0.54,3.12 0.3,1.56 0.72,2.52 1.32,2.82 -0.06,0.24 0,0.72 0.24,1.5 0.42,1.38 0.72,2.28 0.78,2.64 z m -10.62,28.8 c -0.3,1.74 -0.54,3.06 -0.72,3.96 -0.36,-0.78 -0.66,-1.38 -0.9,-1.74 -0.6,-0.9 -1.2,-1.32 -1.8,-1.32 -0.18,0 -0.3,0 -0.42,0.06 -0.18,-0.36 -0.24,-0.84 -0.24,-1.38 0,-0.48 0.12,-1.14 0.3,-2.04 0.24,-1.08 0.48,-1.68 0.78,-1.74 2.1,1.14 3.06,2.58 3,4.2 z m 4.38,-37.02 -1.32,0.6 c -0.54,-0.36 -0.9,-0.66 -1.08,-0.96 l -0.24,0 0.54,1.32 c 0.24,0.24 0.48,0.36 0.66,0.42 l 0.24,0.12 c 0.42,0 0.78,-0.24 1.02,-0.72 z m -14.64,3.12 c 0,-0.48 -1.02,-1.14 -1.56,-1.14 l -0.12,0.42 0.66,0.54 c 0.18,0.18 0.42,0.3 0.6,0.3 0.18,0 0.3,-0.06 0.42,-0.12 z"
         style="font-style:normal;font-variant:normal;font-weight:normal;font-stretch:normal;font-size:60px;font-family:'Snowtop Caps';-inkscape-font-specification:'Snowtop Caps';fill:#ffffff;fill-opacity:1"
         id="path4205"
         inkscape:connector-curvature="0"
         sodipodi:nodetypes="cccsccssssscccscscccccsccssccccccccccsscsccccccccccccccccsc" />
      <path
         d="m 366.89151,59.833632 -0.54,1.26 c -0.36,0.84 -0.54,1.56 -0.54,2.16 0,3.06 -0.24,4.62 -0.72,4.62 -0.48,0 -0.96,-1.5 -1.5,-4.44 -0.18,-0.42 -0.72,-1.2 -1.62,-2.22 -1.56,-1.8 -2.34,-3.12 -2.34,-3.96 0,-1.44 0.66,-2.28 1.92,-2.52 0.78,-0.06 1.14,0.12 1.14,0.6 -0.3,1.2 0.9,2.52 2.16,2.52 0.48,0 1.14,-1.2 1.32,-1.2 0.24,-0.06 0.18,0.3 0.36,1.56 0.3,0.96 0.42,1.5 0.36,1.62 z m -16.5,-2.82 -0.24,8.34 c -0.06,0.84 -0.3,1.2 -0.84,1.08 -0.06,-0.06 -0.12,-0.24 -0.3,-0.66 -0.06,-0.18 -0.24,-0.6 -0.66,-1.32 -0.3,-0.54 -0.48,-0.96 -0.48,-1.32 l 0.12,-0.6 c 0,-0.06 -0.18,-0.24 -0.48,-0.6 -0.66,-0.72 -1.32,-1.5 -1.92,-2.34 -0.42,-0.48 -0.9,-0.72 -1.44,-0.72 -0.84,0 -1.38,0.36 -1.56,1.14 -0.12,0.3 -0.18,1.02 -0.18,2.16 -0.06,0 -0.18,0 -0.24,-0.06 -0.18,-0.54 -0.36,-1.2 -0.48,-1.98 0,-0.48 0.06,-1.08 0.12,-1.8 0,-0.42 -0.24,-1.5 -0.24,-1.92 0.18,-2.16 0.66,-3.18 1.38,-3.06 0.78,0 1.26,0.42 1.44,1.26 0,0.18 -0.06,0.36 -0.12,0.6 0.18,0.66 0.66,0.96 1.32,0.96 0.48,0 0.84,-0.24 1.08,-0.78 0.24,-0.54 0.78,-0.78 1.56,-0.78 0.42,0 0.66,0.96 0.9,1.5 0.24,0.42 0.66,0.72 1.26,0.9 z m 6.66,35.16 c 0,0.6 -0.3,2.34 -0.96,5.22 -0.3,0 -0.72,-0.42 -1.14,-1.26 -0.42,-0.9 -0.72,-1.32 -0.9,-1.38 l -1.38,-3.06 c 0.06,-0.06 0.36,-0.72 0.78,-1.98 0.36,-1.08 0.72,-1.62 1.08,-1.62 l 0.72,0 c 0.48,0.9 0.78,1.44 0.9,1.74 0.6,1.26 0.9,2.04 0.9,2.34 z m -8.58,-33.54 c 0,-0.54 -0.42,-0.78 -1.2,-0.78 -0.3,0 -0.42,0.12 -0.48,0.36 -0.06,0.3 0.9,0.72 1.2,0.66 0.3,-0.06 0.48,-0.18 0.48,-0.24 z"
         style="font-style:normal;font-variant:normal;font-weight:normal;font-stretch:normal;font-size:60px;font-family:'Snowtop Caps';-inkscape-font-specification:'Snowtop Caps';fill:#ffffff;fill-opacity:1"
         id="path4207"
         inkscape:connector-curvature="0"
         sodipodi:nodetypes="csssccsccsccccccccccccscccccccccsssccsccccssccssscss" />
      <path
         d="m 390.94401,58.993632 0,-0.36 c -0.18,-0.3 -0.42,-0.3 -0.6,0 -0.06,0.12 0,0.24 0.24,0.36 0.06,0.06 0.12,0.06 0.18,0.06 0.06,0 0.12,0 0.18,-0.06 z m 13.02,0.36 -0.78,3 c -0.24,0.96 -0.36,1.62 -0.36,2.04 0.12,0.66 0.36,1.32 0.78,2.04 l -0.54,1.32 c -0.54,-0.9 -1.08,-1.92 -1.56,-3.06 -0.12,-0.3 -0.54,-1.38 -1.2,-3.24 -0.36,-0.96 -1.08,-1.44 -2.1,-1.44 -1.38,0.18 -2.34,1.68 -3,4.5 -0.54,0 -1.2,-1.26 -1.68,-1.26 -1.5,0 -2.52,1.32 -2.94,3.9 l -0.72,4.74 c -0.78,-2.34 -1.38,-4.08 -1.8,-5.22 -1.2,-3.42 -2.82,-5.1 -4.8,-5.1 -0.78,0.06 -1.92,1.08 -2.16,1.08 -2.1,-2.22 -3.54,-3.3 -4.32,-3.3 -0.18,0 -0.42,0.12 -0.72,0.3 -0.54,0.42 -0.96,0.6 -1.2,0.6 -0.3,0 -0.84,-0.48 -1.62,-1.5 -0.72,-1.02 -1.08,-1.74 -1.08,-2.1 0,-1.26 0.48,-1.92 1.5,-1.92 0.48,0 1.14,0.24 1.98,0.66 0.84,0.42 1.5,0.66 1.98,0.66 0.18,0 0.66,-0.3 1.08,-0.24 0.72,0 1.5,-0.36 2.28,-1.02 0.78,-0.66 1.5,-1.02 2.04,-1.02 0.3,0 0.84,0.42 1.68,1.26 1.62,1.62 2.46,2.46 2.58,2.46 0.42,0 1.26,-0.54 2.52,-1.68 1.26,-1.14 2.28,-1.74 3.18,-1.68 0.66,0.06 1.56,0.78 2.64,2.22 0.42,0.6 0.96,0.84 1.5,0.78 0.18,0 0.96,-0.18 2.22,-0.6 0.54,-0.18 1.02,-0.24 1.44,-0.24 2.1,0 3.18,1.02 3.18,3.06 z m -9.48,-1.5 c 0.06,-0.54 -1.08,-1.56 -1.74,-1.56 l -0.24,0.24 c -0.18,0.24 0.36,0.48 0.66,0.72 0.54,0.66 0.9,0.96 1.08,0.84 z m -4.5,1.74 -0.72,0.12 c -0.3,0.18 -0.6,0.24 -0.84,0.24 -0.12,0 -0.24,-0.06 -0.3,-0.12 -0.54,-0.66 -0.9,-0.96 -1.08,-0.96 l -0.36,0.12 c 0.24,1.26 0.72,1.86 1.44,1.86 0.66,0 1.8,-0.72 1.86,-1.26 z"
         style="font-style:normal;font-variant:normal;font-weight:normal;font-stretch:normal;font-size:60px;font-family:'Snowtop Caps';-inkscape-font-specification:'Snowtop Caps';fill:#ffffff;fill-opacity:1"
         id="path4209"
         inkscape:connector-curvature="0"
         sodipodi:nodetypes="ccccsccccccccccscccccscscsssscssssscccsscccccccccscccsc" />
    </g>
  </g>
</svg>
