<?xml version="1.0" encoding="UTF-8" standalone="no"?>
<svg
   xmlns:dc="http://purl.org/dc/elements/1.1/"
   xmlns:cc="http://creativecommons.org/ns#"
   xmlns:rdf="http://www.w3.org/1999/02/22-rdf-syntax-ns#"
   xmlns:svg="http://www.w3.org/2000/svg"
   xmlns="http://www.w3.org/2000/svg"
   xmlns:sodipodi="http://sodipodi.sourceforge.net/DTD/sodipodi-0.dtd"
   xmlns:inkscape="http://www.inkscape.org/namespaces/inkscape"
   version="1.1"
   id="Your_Icon"
   x="0px"
   y="0px"
   width="100px"
   height="100px"
   viewBox="0 0 100 100"
   enable-background="new 0 0 100 100"
   xml:space="preserve"
   inkscape:version="0.91 r13725"
   sodipodi:docname="trout-1.svg"><metadata
     id="metadata9"><rdf:RDF><cc:Work
         rdf:about=""><dc:format>image/svg+xml</dc:format><dc:type
           rdf:resource="http://purl.org/dc/dcmitype/StillImage" /><dc:title></dc:title></cc:Work></rdf:RDF></metadata><defs
     id="defs7" /><sodipodi:namedview
     pagecolor="#ffffff"
     bordercolor="#666666"
     borderopacity="1"
     objecttolerance="10"
     gridtolerance="10"
     guidetolerance="10"
     inkscape:pageopacity="0"
     inkscape:pageshadow="2"
     inkscape:window-width="1030"
     inkscape:window-height="697"
     id="namedview5"
     showgrid="false"
     inkscape:zoom="3.337544"
     inkscape:cx="72.855932"
     inkscape:cy="42.115598"
     inkscape:window-x="0"
     inkscape:window-y="0"
     inkscape:window-maximized="0"
     inkscape:current-layer="Your_Icon" /><path
     d="M 95.009,46.14 C 85.715795,40.523194 74.682555,39.261618 64.151439,37.720562 59.057275,37.357748 53.718684,35.757649 50.328094,31.716183 c -3.880085,-2.206349 -4.844066,5.194259 -4.191081,7.513886 0.529446,2.318767 -2.756115,1.294214 -7.327314,2.721486 -8.013307,1.765333 -12.130029,4.153624 -19.322945,1.448551 -4.984295,-0.858194 -8.9851,-5.079484 -14.1786151,-4.948645 -3.5628941,0.762592 0.6215838,5.085095 1.1674826,7.200254 1.7434635,2.756976 1.0778198,8.499293 -1.6723664,10.329793 -2.5122476,1.884544 -2.8945041,6.283761 1.8111971,4.967689 7.5954108,-1.60022 11.8696778,-3.733624 18.0383988,-4.250549 7.836615,0.428267 13.624122,2.812853 21.000646,5.293916 5.040016,0.367941 1.257157,6.423744 3.336099,8.850072 3.000477,0.794664 4.710484,-3.254831 7.285761,-4.378563 2.371729,-1.873392 5.430116,-2.372934 8.360735,-1.968717 11.264303,0.190832 22.921265,-2.88096 31.685553,-10.189213 C 100.1085,48.87027 99.422873,49.686989 95.009,46.14 Z"
     id="path3"
     inkscape:connector-curvature="0"
     sodipodi:nodetypes="ccccccccccccccccc" /></svg>