<?xml version="1.0" encoding="UTF-8" standalone="no"?>
<svg
   xmlns:dc="http://purl.org/dc/elements/1.1/"
   xmlns:cc="http://creativecommons.org/ns#"
   xmlns:rdf="http://www.w3.org/1999/02/22-rdf-syntax-ns#"
   xmlns:svg="http://www.w3.org/2000/svg"
   xmlns="http://www.w3.org/2000/svg"
   xmlns:sodipodi="http://sodipodi.sourceforge.net/DTD/sodipodi-0.dtd"
   xmlns:inkscape="http://www.inkscape.org/namespaces/inkscape"
   version="1.1"
   id="Your_Icon"
   x="0px"
   y="0px"
   width="107.19107"
   height="110.5797"
   viewBox="0 0 107.19106 110.5797"
   enable-background="new 0 0 100 100"
   xml:space="preserve"
   inkscape:version="0.91 r13725"
   sodipodi:docname="trout-3.svg"><metadata
     id="metadata9"><rdf:RDF><cc:Work
         rdf:about=""><dc:format>image/svg+xml</dc:format><dc:type
           rdf:resource="http://purl.org/dc/dcmitype/StillImage" /><dc:title></dc:title></cc:Work></rdf:RDF></metadata><defs
     id="defs7" /><sodipodi:namedview
     pagecolor="#ffffff"
     bordercolor="#666666"
     borderopacity="1"
     objecttolerance="10"
     gridtolerance="10"
     guidetolerance="10"
     inkscape:pageopacity="0"
     inkscape:pageshadow="2"
     inkscape:window-width="1030"
     inkscape:window-height="697"
     id="namedview5"
     showgrid="false"
     inkscape:zoom="2.4480964"
     inkscape:cx="99.881585"
     inkscape:cy="32.94011"
     inkscape:window-x="0"
     inkscape:window-y="0"
     inkscape:window-maximized="0"
     inkscape:current-layer="Your_Icon"
     inkscape:snap-global="true"
     inkscape:snap-nodes="true"
     fit-margin-top="0"
     fit-margin-left="0"
     fit-margin-right="0"
     fit-margin-bottom="0" /><path
     d="m 67.842121,6.3484118 c 3.38199,-0.1889776 10.815312,1.254215 15.175458,4.9673372 2.418327,1.974663 5.054025,3.815495 6.60445,6.588948 2.768153,3.449294 5.126354,7.639096 9.212266,9.679045 2.806685,1.334099 6.956575,1.506741 8.356775,4.651005 -1.40211,3.334871 -8.929586,1.141065 -8.013735,6.494924 -1.141305,7.03797 -2.997245,14.010442 -3.362567,21.142572 -0.05416,5.527733 0.801248,11.070632 0.207329,16.580682 -2.541756,3.761746 -5.327789,-2.087954 -7.191091,-3.621793 -3.28409,-2.439134 -7.567733,-2.394742 -11.388884,-1.532404 -3.474505,1.291851 -4.231474,-2.733706 -1.783415,-4.552572 2.469674,-2.534136 5.302199,-4.70827 7.302559,-7.656728 2.442792,-2.244627 3.628964,-5.776438 2.292881,-8.930993 -1.561423,-2.281081 -1.289456,-8.267327 -5.139991,-6.57585 -2.368259,0.13243 -6.756549,0.815283 -7.374139,-2.124965 1.907965,-3.090568 2.557326,-6.623561 2.009351,-10.214178 C 74.417712,25.448383 72.030641,19.328001 66.832722,16.259794 64.822763,14.685239 63.609504,13.359723 63.489326,10.66241 63.340092,9.6197739 63.545182,8.4306844 64.331048,7.742372 65.558865,7.0838278 65.99063,6.5884495 67.842121,6.3484118 Z"
     id="path3442"
     inkscape:connector-curvature="0"
     sodipodi:nodetypes="cccccccccccccccccccc" /><path
     sodipodi:nodetypes="cccccccccccccccccccc"
     inkscape:connector-curvature="0"
     id="path3364"
     d="M 3.5309374,59.456832 C 1.6762834,56.622432 -0.79053662,49.46339 0.24504942,43.830831 0.74599342,40.749167 1.0223524,37.54617 2.6490204,34.816736 4.2521204,30.694798 6.7014942,26.557635 6.4251862,21.999157 6.1772102,18.901451 4.2517774,15.22122 6.2746892,12.436479 9.863827,11.983307 11.727671,19.599191 15.906324,16.129111 22.572037,13.598525 29.538345,11.71958 35.897612,8.4698931 40.711849,5.752931 45.084436,2.240676 50.153239,0 c 4.528646,0.320353 0.855673,5.657978 0.458981,8.0385641 -0.470307,4.0636729 1.709959,7.7512199 4.367341,10.6292649 2.856028,2.363084 -0.251722,5.031417 -3.050936,3.820769 -3.429463,-0.871733 -6.728581,-2.237704 -10.2822,-2.495838 -3.1653,-0.993206 -6.817024,-0.254556 -8.880907,2.479804 -1.194763,2.492772 -6.514988,5.250365 -3.124858,7.739287 1.298817,1.984758 4.08433,5.443702 1.846796,7.448675 -3.630493,-0.107063 -7.014835,1.097071 -9.850413,3.36694 -4.852841,3.184752 -8.959711,8.312207 -9.017897,14.34784 -0.358625,2.527953 -0.899927,4.241424 -3.175779,5.694158 C 8.615035,61.720023 7.4827082,62.136954 6.4936792,61.80053 5.3094544,61.066482 4.6645624,60.940251 3.5309374,59.456832 Z" /><path
     d="m 82.971979,89.420021 c -1.527335,3.02338 -6.493836,8.73923 -11.889569,10.658659 -2.919268,1.107 -5.831326,2.46917 -9.00842,2.42515 -4.371253,0.67264 -9.178828,0.62 -12.988432,3.13853 -2.558704,1.76361 -4.783161,5.2712 -8.206273,4.91168 -2.187028,-2.8817 3.476599,-8.30378 -1.617905,-10.18756 C 33.736972,95.859101 28.626604,90.76557 22.632659,86.883127 17.872582,84.072357 12.644587,82.041713 8.1697027,78.772338 6.1828142,74.690239 12.641819,75.202315 14.901813,74.355567 c 3.754398,-1.624538 5.857774,-5.356478 7.021543,-9.096861 0.618477,-3.654934 4.483196,-2.29771 4.834351,0.731804 0.959789,3.405869 1.426382,6.945974 2.979641,10.152565 0.722508,3.237834 3.18806,6.030994 6.588027,6.45119 2.756185,-0.211691 7.804443,3.016962 8.264848,-1.163438 1.069442,-2.117187 2.672219,-6.258984 5.527344,-5.323709 1.722527,3.19763 4.457509,5.52649 7.841065,6.847236 5.184495,2.610308 11.678432,3.603237 16.934543,0.635807 2.368581,-0.953396 4.123141,-1.34135 6.519168,-0.09677 0.977567,0.392076 1.904803,1.164235 2.107969,2.18897 -0.04359,1.392593 0.169534,2.014201 -0.548333,3.737659 z"
     id="path3366"
     inkscape:connector-curvature="0"
     sodipodi:nodetypes="cccccccccccccccccccc" /></svg>