<?xml version="1.0" encoding="UTF-8" standalone="no"?>
<svg
   xmlns:dc="http://purl.org/dc/elements/1.1/"
   xmlns:cc="http://creativecommons.org/ns#"
   xmlns:rdf="http://www.w3.org/1999/02/22-rdf-syntax-ns#"
   xmlns:svg="http://www.w3.org/2000/svg"
   xmlns="http://www.w3.org/2000/svg"
   xmlns:sodipodi="http://sodipodi.sourceforge.net/DTD/sodipodi-0.dtd"
   xmlns:inkscape="http://www.inkscape.org/namespaces/inkscape"
   version="1.1"
   id="Your_Icon"
   x="0px"
   y="0px"
   width="102.79247"
   height="112.17988"
   viewBox="0 0 102.79246 112.17988"
   enable-background="new 0 0 100 100"
   xml:space="preserve"
   inkscape:version="0.91 r13725"
   sodipodi:docname="trout-2.svg"><metadata
     id="metadata9"><rdf:RDF><cc:Work
         rdf:about=""><dc:format>image/svg+xml</dc:format><dc:type
           rdf:resource="http://purl.org/dc/dcmitype/StillImage" /><dc:title></dc:title></cc:Work></rdf:RDF></metadata><defs
     id="defs7" /><sodipodi:namedview
     pagecolor="#ffffff"
     bordercolor="#666666"
     borderopacity="1"
     objecttolerance="10"
     gridtolerance="10"
     guidetolerance="10"
     inkscape:pageopacity="0"
     inkscape:pageshadow="2"
     inkscape:window-width="1030"
     inkscape:window-height="697"
     id="namedview5"
     showgrid="false"
     inkscape:zoom="3.340313"
     inkscape:cx="40.941655"
     inkscape:cy="44.5389"
     inkscape:window-x="0"
     inkscape:window-y="0"
     inkscape:window-maximized="0"
     inkscape:current-layer="Your_Icon"
     inkscape:snap-global="true"
     inkscape:snap-nodes="true"
     fit-margin-top="0"
     fit-margin-left="0"
     fit-margin-right="0"
     fit-margin-bottom="0" /><path
     d="M 2.095612,36.158689 C 2.8038719,22.61809 14.289061,14.245669 26.611676,9.909495 31.75189,8.0216527 37.592596,7.9990544 42.189025,4.7050377 45.683348,3.218792 48.421783,-0.85758719 52.667359,0.16160871 54.503018,3.355633 51.254647,9.5617056 57.300988,9.6528994 c 8.333539,2.4997676 16.225779,8.8330746 24.095577,13.6172126 7.015065,3.423432 14.391722,6.392846 20.557025,11.274326 3.26757,4.221747 -3.893438,4.164504 -6.386849,3.853706 -4.510227,1.094607 -6.309763,5.737772 -7.021999,9.837685 -0.875563,4.978203 -5.345331,0.623151 -6.03821,-2.103904 -1.228126,-3.831247 -2.85568,-7.506949 -5.582709,-10.50571 -3.823333,-5.777867 -10.461394,-10.012198 -17.566577,-9.366571 -3.112546,-0.04287 -8.095994,-0.801182 -6.77523,3.890693 0.261715,4.192362 -3.714081,7.355818 -6.209669,2.954596 -5.523998,-3.90604 -12.750552,-2.986713 -18.767965,-0.861369 -6.513341,2.236058 -9.9335,5.521149 -16.092728,9.601154 -8.2772019,3.464417 -9.2228739,2.195626 -9.416042,-5.686029 z"
     id="path3396"
     inkscape:connector-curvature="0"
     sodipodi:nodetypes="ccccccccccccccccc" /><path
     sodipodi:nodetypes="ccccccccccccccccc"
     inkscape:connector-curvature="0"
     id="path3386"
     d="m 100.69685,76.021188 c -0.708258,13.540599 -12.193446,21.91302 -24.516061,26.249192 -5.140214,1.88784 -10.98092,1.91044 -15.577349,5.20446 -3.494323,1.48624 -6.232758,5.56262 -10.478334,4.54343 -1.835659,-3.19403 1.412712,-9.4001 -4.633629,-9.49129 C 37.157938,100.02721 29.265698,93.693903 21.3959,88.909765 14.380835,85.486333 7.0041776,82.516919 0.83887128,77.635439 -2.4286988,73.413692 4.7323116,73.470935 7.2257236,73.781733 c 4.5102274,-1.094607 6.3097634,-5.737772 7.0219994,-9.837685 0.875563,-4.978203 5.345331,-0.623151 6.03821,2.103904 1.228126,3.831247 2.85568,7.506949 5.582709,10.50571 3.823333,5.777867 10.461394,10.012198 17.566577,9.366571 3.112546,0.04287 8.095994,0.801182 6.77523,-3.890693 -0.261715,-4.192362 3.714081,-7.355818 6.209669,-2.954596 5.523998,3.90604 12.750552,2.986713 18.767965,0.861369 6.513341,-2.236058 9.9335,-5.521149 16.092728,-9.601154 8.277201,-3.464417 9.222869,-2.195626 9.416039,5.686029 z" /></svg>